<svg width="22" height="22" viewBox="0 0 22 22" fill="none" xmlns="http://www.w3.org/2000/svg">
<path fill-rule="evenodd" clip-rule="evenodd" d="M0 10.595C0 4.74356 4.74356 0 10.595 0C16.4464 0 21.19 4.74356 21.19 10.595C21.19 16.4464 16.4464 21.19 10.595 21.19C4.74356 21.19 0 16.4464 0 10.595ZM14.9632 4.59117H6.57998C5.87307 4.59117 5.2975 5.15977 5.2975 5.86433V14.2203C5.2975 14.9248 5.87307 15.4934 6.57998 15.4934H13.6744L13.3429 14.35L14.1436 15.0855L14.9006 15.7777L16.2457 16.952V5.86433C16.2457 5.15977 15.6701 4.59117 14.9632 4.59117Z" fill="#CBB18A"/>
<path fill-rule="evenodd" clip-rule="evenodd" d="M12.5483 12.6628C12.5483 12.6628 12.3231 12.397 12.1354 12.1622C12.955 11.9335 13.2678 11.4267 13.2678 11.4267C13.0113 11.5936 12.7673 11.711 12.5483 11.7914C12.2355 11.9211 11.9352 12.0077 11.6412 12.0571C11.0406 12.1684 10.4901 12.1375 10.0208 12.0509C9.66428 11.9829 9.35773 11.8841 9.1012 11.7852C8.95733 11.7296 8.80092 11.6616 8.64451 11.575C8.62575 11.5627 8.60699 11.5565 8.58823 11.5441C8.57569 11.538 8.56947 11.5318 8.5632 11.5256C8.45058 11.4638 8.38803 11.4205 8.38803 11.4205C8.38803 11.4205 8.68831 11.915 9.48284 12.1498C9.29514 12.3847 9.06368 12.6628 9.06368 12.6628C7.68108 12.6195 7.15556 11.7234 7.15556 11.7234C7.15556 9.73328 8.05645 8.12019 8.05645 8.12019C8.95733 7.4527 9.81442 7.47124 9.81442 7.47124L9.87698 7.54541C8.75086 7.86679 8.23162 8.35504 8.23162 8.35504C8.23162 8.35504 8.36926 8.28088 8.60072 8.17581C9.27015 7.88533 9.80189 7.80499 10.0208 7.78644C10.0584 7.78026 10.0897 7.77408 10.1272 7.77408C10.5088 7.72464 10.9405 7.71228 11.391 7.76172C11.9853 7.82971 12.6234 8.00276 13.274 8.35504C13.274 8.35504 12.7798 7.89151 11.7163 7.57013L11.8039 7.47124C11.8039 7.47124 12.6609 7.4527 13.5618 8.12019C13.5618 8.12019 14.4627 9.73328 14.4627 11.7234C14.4627 11.7234 13.9309 12.6195 12.5483 12.6628ZM9.81544 9.88867C9.46165 9.88867 9.18234 10.2068 9.18234 10.595C9.18234 10.9832 9.46783 11.3013 9.81544 11.3013C10.1692 11.3013 10.4485 10.9832 10.4485 10.595C10.4547 10.2068 10.1692 9.88867 9.81544 9.88867ZM12.0809 9.88867C11.7271 9.88867 11.4478 10.2068 11.4478 10.595C11.4478 10.9832 11.7334 11.3013 12.0809 11.3013C12.4347 11.3013 12.714 10.9832 12.714 10.595C12.714 10.2068 12.4347 9.88867 12.0809 9.88867Z" fill="#CBB18A"/>
</svg>
