<svg width="22" height="21" viewBox="0 0 22 21" fill="none" xmlns="http://www.w3.org/2000/svg">
<path fill-rule="evenodd" clip-rule="evenodd" d="M10.5953 0C4.74405 0 0 4.74405 0 10.597C0 15.2785 3.03585 19.25 7.24681 20.6517C7.77681 20.7488 7.96994 20.4216 7.96994 20.1403C7.96994 19.8894 7.96113 19.2227 7.95583 18.3386C5.00817 18.9788 4.38645 16.9179 4.38645 16.9179C3.9045 15.6943 3.20958 15.3684 3.20958 15.3684C2.24746 14.7106 3.28234 14.7238 3.28234 14.7238C4.34588 14.7992 4.90543 15.816 4.90543 15.816C5.8508 17.4351 7.3857 16.9673 7.98935 16.6965C8.08591 16.0118 8.35885 15.5448 8.66222 15.2798C6.30937 15.0126 3.83527 14.1029 3.83527 10.0428C3.83527 8.88621 4.24843 7.93996 4.92615 7.19919C4.81724 6.9311 4.45347 5.85389 5.02977 4.39482C5.02977 4.39482 5.91959 4.10998 7.94393 5.48129C8.78921 5.24627 9.69577 5.12854 10.5966 5.12458C11.4966 5.12854 12.4031 5.24627 13.2497 5.48129C15.2728 4.10998 16.1608 4.39482 16.1608 4.39482C16.7389 5.85389 16.3751 6.9311 16.2662 7.19919C16.9452 7.93996 17.3557 8.88621 17.3557 10.0428C17.3557 14.1135 14.8777 15.0091 12.5169 15.2714C12.8979 15.5986 13.2365 16.245 13.2365 17.234C13.2365 18.6503 13.2237 19.7932 13.2237 20.1403C13.2237 20.4242 13.4142 20.754 13.9521 20.6504C18.1596 19.246 21.1928 15.2772 21.1928 10.597C21.1928 4.74405 16.4483 0 10.5953 0Z" fill="#CBB18A"/>
</svg>
