<svg width="29" height="29" viewBox="0 0 29 29" fill="none" xmlns="http://www.w3.org/2000/svg">
<path d="M14.1343 28.2353C13.6065 28.2353 13.0787 28.03 12.6975 27.6488L0.557365 15.538C-0.205056 14.6877 -0.175732 13.3974 0.586689 12.6057L9.09062 4.07241L12.5215 7.53263L12.4042 7.94316C12.2283 8.55896 12.4042 9.26274 12.8734 9.73192L12.932 9.79057C12.9907 9.84921 13.0787 9.93719 13.2839 10.0545L13.6651 10.2597V18.1772L13.3133 18.3825C13.108 18.4998 12.8734 18.705 12.7561 18.9103C12.2576 19.5847 12.2576 20.5231 12.7561 21.1389C13.108 21.6081 13.6358 21.872 14.2516 21.872C14.8967 21.8134 15.4246 21.5494 15.7471 21.0803C16.1284 20.4645 16.1577 19.7314 15.8644 19.1449C15.7471 18.9103 15.5126 18.6757 15.1607 18.4118L14.8674 18.1772V9.87854L18.2983 13.3681L18.1517 13.7786C17.9758 14.4237 18.1517 15.0982 18.6209 15.5674C19.0021 15.9486 19.5299 16.1245 20.1164 16.0952C20.6442 16.0366 21.1427 15.714 21.4653 15.2448C21.8172 14.6877 21.8172 13.9252 21.4653 13.3094C21.0254 12.635 20.263 12.2831 19.5299 12.4884L19.1194 12.5763L15.8644 9.29206L15.9524 8.91085C16.0697 8.29505 15.8938 7.64992 15.4246 7.18074C15.014 6.74088 14.3689 6.56494 13.7238 6.68223L13.3426 6.77021L9.88236 3.30999L12.5802 0.582864C13.4012 -0.208881 14.7501 -0.179557 15.5126 0.582864L27.6526 12.6936C28.4151 13.544 28.4151 14.8343 27.6233 15.5967L15.6005 27.6781C15.1607 28.0594 14.6328 28.2353 14.1343 28.2353ZM1.64235 14.541L13.6945 26.5932C13.8997 26.7984 14.3103 26.7984 14.5742 26.5638L26.5677 14.5704C26.7729 14.3651 26.7729 13.9546 26.5383 13.6906L14.4862 1.63852C14.2809 1.43326 13.8411 1.43326 13.6065 1.63852L11.935 3.30999L13.8118 5.18672C14.8088 5.09874 15.7765 5.45063 16.4509 6.1544C17.1254 6.85818 17.4773 7.82586 17.3893 8.76423L19.5592 10.9342C20.7908 10.7876 21.9638 11.3741 22.6969 12.4884C23.3714 13.632 23.342 14.9809 22.6676 16.0072C22.1104 16.8283 21.2014 17.3855 20.2337 17.5028C19.2074 17.5907 18.2397 17.2388 17.5359 16.5644C16.8028 15.8313 16.4509 14.7756 16.5975 13.7493L16.2456 13.3974V17.4148C16.5389 17.6787 16.8614 18.0013 17.0667 18.4411C17.5945 19.4675 17.5359 20.7577 16.8908 21.8134L16.8614 21.8427C16.275 22.7224 15.3366 23.2209 14.2223 23.3089H14.1637C13.0787 23.3089 12.0817 22.8397 11.4659 21.9893C10.5861 20.8457 10.5568 19.2035 11.4365 18.0013C11.6125 17.7667 11.8177 17.5321 12.0817 17.3268V11.1395C11.935 11.0222 11.8177 10.9049 11.7298 10.7876C10.9967 10.0545 10.6741 8.99882 10.8207 8.00181L9.00265 6.18373L1.64235 13.6613C1.40776 13.8666 1.40776 14.2771 1.64235 14.541Z" fill="#CBB18A"/>
</svg>
