<svg width="29" height="29" viewBox="0 0 29 29" fill="none" xmlns="http://www.w3.org/2000/svg">
<path d="M14.11 11.104C14.679 11.104 15.1436 11.5675 15.1436 12.1364C15.1436 12.6556 15.5656 13.0764 16.0847 13.0764C16.6027 13.0764 17.0247 12.6556 17.0247 12.1364C17.0247 10.861 16.1938 9.78478 15.05 9.39126V8.85787C15.05 8.33988 14.6292 7.91672 14.11 7.91672C13.5896 7.91672 13.1689 8.33988 13.1689 8.85787V9.39126C12.025 9.78478 11.1965 10.861 11.1965 12.1364C11.1965 13.7449 12.5027 15.0511 14.11 15.0511C14.679 15.0511 15.1436 15.5158 15.1436 16.0847C15.1436 16.6549 14.679 17.1183 14.11 17.1183C13.541 17.1183 13.0776 16.6549 13.0776 16.0847C13.0776 15.5656 12.6556 15.1436 12.1364 15.1436C11.6161 15.1436 11.1965 15.5656 11.1965 16.0847C11.1965 17.3601 12.025 18.4352 13.1689 18.8287V19.3621C13.1689 19.8825 13.5896 20.3045 14.11 20.3045C14.6292 20.3045 15.05 19.8825 15.05 19.3621V18.8287C16.1938 18.4352 17.0247 17.3601 17.0247 16.0847C17.0247 14.4774 15.7173 13.17 14.11 13.17C13.541 13.17 13.0776 12.7066 13.0776 12.1364C13.0776 11.5675 13.541 11.104 14.11 11.104ZM21.9912 19.3337C22.4523 19.5767 23.02 19.4001 23.2618 18.9425C24.0441 17.4644 24.4566 15.7931 24.4566 14.11C24.4566 8.40626 19.8137 3.76456 14.11 3.76456C8.40508 3.76456 3.76338 8.40626 3.76338 14.11C3.76338 19.8149 8.40508 24.4566 14.11 24.4566C15.7683 24.4566 17.4158 24.056 18.875 23.2962C19.3361 23.058 19.515 22.4878 19.2756 22.0279C19.0362 21.5692 18.4684 21.3867 18.0061 21.6273C16.7983 22.2579 15.4862 22.5767 14.11 22.5767C9.44223 22.5767 5.64329 18.779 5.64329 14.11C5.64329 9.44341 9.44223 5.64447 14.11 5.64447C18.7778 5.64447 22.5767 9.44341 22.5767 14.11C22.5767 15.4885 22.2377 16.8552 21.6 18.0618C21.3558 18.5217 21.5313 19.0907 21.9912 19.3337ZM14.11 0C11.385 0 8.73933 0.779938 6.45997 2.25329C6.02259 2.53539 5.89813 3.11738 6.18024 3.55358C6.46353 3.98977 7.04315 4.11305 7.48171 3.83331C9.45408 2.55791 11.7489 1.88228 14.11 1.88228C20.8533 1.88228 26.3377 7.36792 26.3377 14.11C26.3377 20.8533 20.8533 26.3389 14.11 26.3389C7.36674 26.3389 1.8811 20.8533 1.8811 14.11C1.8811 11.7714 2.54369 9.49675 3.79894 7.53505C4.07867 7.09649 3.95066 6.5145 3.51209 6.23476C3.07471 5.95503 2.49272 6.08304 2.21417 6.52042C0.765714 8.78556 0 11.4122 0 14.11C0 21.8916 6.3284 28.22 14.11 28.22C21.8904 28.22 28.22 21.8916 28.22 14.11C28.22 6.33077 21.8904 0 14.11 0Z" fill="#CBB18A"/>
</svg>
