<svg width="29" height="34" viewBox="0 0 29 34" fill="none" xmlns="http://www.w3.org/2000/svg">
<path d="M27.6556 4.75726L27.5687 5.24963L27.5756 5.25075C27.6157 5.25725 27.6522 5.27773 27.6786 5.30857C27.7048 5.33909 27.7194 5.37781 27.72 5.41798C27.72 16.3358 27.571 21.2005 24.3339 26.1735L24.3338 26.1737C22.9784 28.258 20.5351 29.9697 18.3375 31.1877C16.3627 32.2821 14.6447 32.9467 14.2195 33.1088H14.0831H14.0375L13.9927 33.117C13.9865 33.1182 13.9803 33.1188 13.9741 33.1191C13.6023 32.9771 11.8636 32.3073 9.85678 31.1883C7.67292 29.9706 5.24217 28.2588 3.88619 26.1737L3.88607 26.1735C0.649043 21.2005 0.500022 16.3358 0.5 5.41802C0.500565 5.37784 0.515196 5.3391 0.541368 5.30857C0.565379 5.28056 0.597695 5.26109 0.633468 5.25289C0.648296 5.25122 0.658009 5.2497 0.658057 5.2497C0.676128 5.2472 0.698027 5.24387 0.722149 5.24006C0.770939 5.23235 0.837394 5.22127 0.918438 5.20736C1.08098 5.17947 1.30762 5.13925 1.58032 5.08949C2.12587 4.98996 2.85884 4.85171 3.63701 4.69658C5.16604 4.39177 6.9204 4.01212 7.74002 3.73017C9.9998 3.11435 12.1094 2.0418 13.9385 0.578693L13.9551 0.565475L13.9704 0.550907C14.0046 0.518446 14.0499 0.500281 14.0969 0.500003C14.1378 0.502426 14.1766 0.519401 14.2062 0.547939L14.2245 0.565642L14.2445 0.581388C16.0901 2.03154 18.2046 3.10164 20.466 3.72993C21.2918 4.01185 23.0783 4.39188 24.6225 4.69676C25.408 4.85183 26.1443 4.98999 26.684 5.08935C26.954 5.13904 27.1749 5.17906 27.3285 5.20667L27.506 5.23845L27.5526 5.24673L27.5645 5.24885L27.5676 5.24939L27.5684 5.24953L27.5686 5.24957L27.6556 4.75726ZM24.0431 25.9936L24.1242 25.8692V25.8143C27.0975 21.1788 27.3634 16.943 27.4165 5.87495L27.4186 5.44024L26.9884 5.37775C24.748 5.05229 22.5264 4.60819 20.333 4.04733C18.2142 3.3944 16.2112 2.41213 14.3977 1.13652L14.1044 0.930273L13.815 1.14179C12.0227 2.45153 10.0342 3.46882 7.92346 4.15581C5.73139 4.71636 3.5111 5.16013 1.27196 5.48525L0.843287 5.54749L0.84381 5.98066C0.857218 17.0958 1.12696 21.3077 4.17678 25.9934L4.17693 25.9936C5.41141 27.8879 7.55763 29.4477 9.50062 30.582C11.4565 31.7237 13.27 32.4703 13.9009 32.7172L14.0831 32.7884L14.2653 32.7172C14.895 32.4707 16.7218 31.7244 18.6912 30.5827C20.6472 29.4488 22.808 27.8889 24.0431 25.9936Z" fill="black" stroke="#CBB18A"/>
<path d="M7.4887 17.8567L7.48863 17.8567L7.49634 17.8633L13.651 23.1176L14.075 23.4796L14.3889 23.0188L21.7922 12.149C21.7923 12.1488 21.7924 12.1486 21.7925 12.1485C21.8191 12.1102 21.8596 12.0839 21.9055 12.0754C21.9515 12.0668 21.999 12.0769 22.0376 12.1034C22.0762 12.1299 22.1027 12.1707 22.1113 12.2167C22.1198 12.2627 22.1097 12.3103 22.0832 12.3488L22.0822 12.3503L14.2612 23.8265L14.2612 23.8265L14.2596 23.8289C14.2451 23.8504 14.2264 23.8686 14.2045 23.8823C14.1895 23.8917 14.1734 23.8989 14.1566 23.9037H14.11V23.9036L14.1033 23.9037C14.0703 23.9042 14.0383 23.8922 14.0137 23.8701L14.0138 23.87L14.0047 23.8622L7.28803 18.1262C7.28776 18.1259 7.28749 18.1257 7.28721 18.1255C7.2511 18.0939 7.22864 18.0495 7.2246 18.0016C7.22061 17.9544 7.23483 17.9076 7.26425 17.8706C7.27753 17.8555 7.29359 17.843 7.31157 17.8338C7.33042 17.8242 7.351 17.8185 7.3721 17.817C7.3932 17.8155 7.41438 17.8182 7.43441 17.8251C7.45444 17.8319 7.4729 17.8426 7.4887 17.8567Z" fill="black" stroke="#CBB18A"/>
</svg>
